<svg width="24" height="24" viewBox="0 0 24 24" fill="none" xmlns="http://www.w3.org/2000/svg">
<path d="M14.5 6.29001H9.49998C8.27998 6.29001 7.28998 7.28001 7.28998 8.50001C7.28998 9.72001 8.27998 10.71 9.49998 10.71H14.5C15.72 10.71 16.71 9.72001 16.71 8.50001C16.71 7.28001 15.72 6.29001 14.5 6.29001ZM14.5 9.29001H9.49998C9.05998 9.29001 8.70998 8.94001 8.70998 8.50001C8.70998 8.06001 9.05998 7.71001 9.49998 7.71001H14.5C14.94 7.71001 15.29 8.06001 15.29 8.50001C15.29 8.94001 14.94 9.29001 14.5 9.29001Z" fill="#001333"/>
<path d="M15 2.29001H8.99998C6.39998 2.29001 4.28998 4.40001 4.28998 7.00001V17C4.28998 19.6 6.39998 21.71 8.99998 21.71H15C17.6 21.71 19.71 19.6 19.71 17V7.00001C19.71 4.40001 17.6 2.29001 15 2.29001ZM18.29 17C18.29 18.81 16.81 20.29 15 20.29H8.99998C7.18998 20.29 5.70998 18.81 5.70998 17V7.00001C5.70998 5.19001 7.18998 3.71001 8.99998 3.71001H15C16.81 3.71001 18.29 5.19001 18.29 7.00001V17Z" fill="#001333"/>
<path d="M8.99998 15C9.55226 15 9.99998 14.5523 9.99998 14C9.99998 13.4477 9.55226 13 8.99998 13C8.44769 13 7.99998 13.4477 7.99998 14C7.99998 14.5523 8.44769 15 8.99998 15Z" fill="#001333"/>
<path d="M12 15C12.5523 15 13 14.5523 13 14C13 13.4477 12.5523 13 12 13C11.4477 13 11 13.4477 11 14C11 14.5523 11.4477 15 12 15Z" fill="#001333"/>
<path d="M15 15C15.5523 15 16 14.5523 16 14C16 13.4477 15.5523 13 15 13C14.4477 13 14 13.4477 14 14C14 14.5523 14.4477 15 15 15Z" fill="#001333"/>
<path d="M8.99998 18C9.55226 18 9.99998 17.5523 9.99998 17C9.99998 16.4477 9.55226 16 8.99998 16C8.44769 16 7.99998 16.4477 7.99998 17C7.99998 17.5523 8.44769 18 8.99998 18Z" fill="#001333"/>
<path d="M12 18C12.5523 18 13 17.5523 13 17C13 16.4477 12.5523 16 12 16C11.4477 16 11 16.4477 11 17C11 17.5523 11.4477 18 12 18Z" fill="#001333"/>
<path d="M15 18C15.5523 18 16 17.5523 16 17C16 16.4477 15.5523 16 15 16C14.4477 16 14 16.4477 14 17C14 17.5523 14.4477 18 15 18Z" fill="#001333"/>
</svg>
