<svg width="24" height="24" viewBox="0 0 24 24" fill="none" xmlns="http://www.w3.org/2000/svg">
<path d="M18 11.29H16.38L16.34 11.08C15.9 8.88998 13.96 7.28998 11.72 7.28998H8.27998C6.03998 7.28998 4.09998 8.87998 3.65998 11.08L3.61998 11.29H1.99998C1.60998 11.29 1.28998 11.61 1.28998 12C1.28998 12.39 1.60998 12.71 1.99998 12.71H3.32998L3.28998 12.91C2.67998 13.41 2.28998 14.15 2.28998 15V20C2.28998 20.94 3.05998 21.71 3.99998 21.71C4.93998 21.71 5.70998 20.94 5.70998 20V19.71H14.29V20C14.29 20.94 15.06 21.71 16 21.71C16.94 21.71 17.71 20.94 17.71 20V15C17.71 14.16 17.31 13.41 16.71 12.91L16.67 12.71H18C18.39 12.71 18.71 12.39 18.71 12C18.71 11.61 18.39 11.29 18 11.29ZM4.99998 18.29C4.28998 18.29 3.70998 17.71 3.70998 17V15C3.70998 14.29 4.28998 13.71 4.99998 13.71H15C15.71 13.71 16.29 14.29 16.29 15V17C16.29 17.71 15.71 18.29 15 18.29H4.99998ZM8.27998 8.70998H11.72C13.28 8.70998 14.64 9.81998 14.95 11.35L15.14 12.3C15.14 12.3 15.05 12.29 15 12.29H4.99998C4.99998 12.29 4.90998 12.3 4.85998 12.3L5.04998 11.35C5.35998 9.81998 6.70998 8.70998 8.27998 8.70998Z" fill="#001333"/>
<path d="M14 17C14.5523 17 15 16.5523 15 16C15 15.4477 14.5523 15 14 15C13.4477 15 13 15.4477 13 16C13 16.5523 13.4477 17 14 17Z" fill="#001333"/>
<path d="M5.99998 17C6.55226 17 6.99998 16.5523 6.99998 16C6.99998 15.4477 6.55226 15 5.99998 15C5.44769 15 4.99998 15.4477 4.99998 16C4.99998 16.5523 5.44769 17 5.99998 17Z" fill="#001333"/>
<path d="M21.5 7.49998L20.42 6.41998C20.75 5.89998 20.95 5.28998 20.95 4.61998C20.95 2.77998 19.45 1.28998 17.62 1.28998C15.79 1.28998 14.29 2.78998 14.29 4.61998C14.29 6.44998 15.79 7.94998 17.62 7.94998C18.28 7.94998 18.9 7.74998 19.42 7.41998L20.5 8.49998C20.64 8.63998 20.82 8.70998 21 8.70998C21.18 8.70998 21.36 8.63998 21.5 8.49998C21.78 8.21998 21.78 7.76998 21.5 7.49998ZM17.62 6.53998C16.56 6.53998 15.7 5.67998 15.7 4.61998C15.7 3.55998 16.56 2.69998 17.62 2.69998C18.68 2.69998 19.54 3.55998 19.54 4.61998C19.54 5.67998 18.68 6.53998 17.62 6.53998Z" fill="#001333"/>
</svg>
