<svg width="24" height="24" viewBox="0 0 24 24" fill="none" xmlns="http://www.w3.org/2000/svg">
<path d="M15 13.29C14.61 13.29 14.29 13.61 14.29 14V14.75C14.29 15.6 13.6 16.29 12.75 16.29H8.25004C7.40004 16.29 6.71004 15.6 6.71004 14.75V10.25C6.71004 9.39998 7.40004 8.70998 8.25004 8.70998H9.00004C9.39004 8.70998 9.71004 8.38998 9.71004 7.99998C9.71004 7.60998 9.39004 7.28998 9.00004 7.28998H8.25004C6.62004 7.28998 5.29004 8.61998 5.29004 10.25V14.75C5.29004 16.38 6.62004 17.71 8.25004 17.71H12.75C14.38 17.71 15.71 16.38 15.71 14.75V14C15.71 13.61 15.39 13.29 15 13.29Z" fill="#001333"/>
<path d="M18.66 4.72999C18.59 4.55999 18.45 4.41999 18.28 4.34999C18.19 4.30999 18.1 4.29999 18.01 4.29999H12.35C11.96 4.29999 11.64 4.61999 11.64 5.00999C11.64 5.39999 11.96 5.71999 12.35 5.71999H16.29L10.5 11.51C10.22 11.79 10.22 12.24 10.5 12.51C10.64 12.65 10.82 12.72 11 12.72C11.18 12.72 11.36 12.65 11.5 12.51L17.29 6.71999V10.66C17.29 11.05 17.61 11.37 18 11.37C18.39 11.37 18.71 11.05 18.71 10.66V4.99999C18.71 4.90999 18.69 4.81999 18.66 4.72999Z" fill="#001333"/>
</svg>
