<svg width="24" height="24" viewBox="0 0 24 24" fill="none" xmlns="http://www.w3.org/2000/svg">
<path d="M19.67 9.22994C19.32 5.63994 16.47 2.73994 12.89 2.33994C10.69 2.08994 8.48998 2.78994 6.85998 4.24994C5.22998 5.70994 4.28998 7.80994 4.28998 9.99994C4.28998 12.3499 5.33998 14.5299 7.15998 15.9999C7.19998 16.0299 7.28998 16.1199 7.28998 16.2399V17.0099C7.28998 17.8499 7.67998 18.5999 8.28998 19.0899V20.0099C8.28998 20.9499 9.05998 21.7199 9.99998 21.7199H14C14.94 21.7199 15.71 20.9499 15.71 20.0099V19.0899C16.32 18.5899 16.71 17.8499 16.71 17.0099V16.2499C16.71 16.1299 16.8 16.0399 16.84 16.0099C18.87 14.3799 19.92 11.8499 19.67 9.23994V9.22994ZM15.95 14.8899C15.53 15.2299 15.29 15.7199 15.29 16.2399V16.9999C15.29 17.7099 14.71 18.2899 14 18.2899H12.71V15.2899L14.5 13.4999C14.78 13.2199 14.78 12.7699 14.5 12.4999C14.22 12.2299 13.77 12.2199 13.5 12.4999L12 13.9999L10.5 12.4999C10.22 12.2199 9.76998 12.2199 9.49998 12.4999C9.22998 12.7799 9.21998 13.2299 9.49998 13.4999L11.29 15.2899V18.2899H9.99998C9.28998 18.2899 8.70998 17.7099 8.70998 16.9999V16.2299C8.70998 15.7099 8.46998 15.2199 8.04998 14.8899C6.55998 13.6999 5.70998 11.9099 5.70998 9.99994C5.70998 8.20994 6.46998 6.49994 7.80998 5.30994C8.97998 4.26994 10.44 3.70994 12 3.70994C12.24 3.70994 12.49 3.71994 12.74 3.74994C15.61 4.06994 17.99 6.47994 18.27 9.35994C18.48 11.4899 17.61 13.5599 15.96 14.8899H15.95Z" fill="#00091A"/>
</svg>
