<svg width="24" height="24" viewBox="0 0 24 24" fill="none" xmlns="http://www.w3.org/2000/svg">
<path d="M9.99998 20.29H7.99998C6.18998 20.29 4.70998 18.81 4.70998 17V6.99998C4.70998 5.18998 6.18998 3.70998 7.99998 3.70998H12.29V6.01998C12.29 7.50998 13.51 8.72998 15 8.72998H17.29V12C17.29 12.39 17.61 12.71 18 12.71C18.39 12.71 18.71 12.39 18.71 12V7.84998C18.71 7.13998 18.42 6.43998 17.92 5.93998L15.09 3.08998C14.59 2.57998 13.89 2.28998 13.17 2.28998H7.99998C5.39998 2.28998 3.28998 4.39998 3.28998 6.99998V17C3.28998 19.6 5.39998 21.71 7.99998 21.71H9.99998C10.39 21.71 10.71 21.39 10.71 21C10.71 20.61 10.39 20.29 9.99998 20.29ZM16.91 6.93998C17.02 7.04998 17.1 7.17998 17.16 7.30998H15C14.29 7.30998 13.71 6.72998 13.71 6.01998V3.83998C13.85 3.89998 13.97 3.97998 14.08 4.08998L16.91 6.93998Z" fill="#001333"/>
<path d="M20.5 21.5L18.93 19.93C19.42 19.24 19.71 18.41 19.71 17.5C19.71 15.18 17.82 13.29 15.5 13.29C13.18 13.29 11.29 15.18 11.29 17.5C11.29 19.82 13.18 21.71 15.5 21.71C16.4 21.71 17.24 21.42 17.93 20.93L19.5 22.5C19.64 22.64 19.82 22.71 20 22.71C20.18 22.71 20.36 22.64 20.5 22.5C20.78 22.22 20.78 21.77 20.5 21.5ZM12.71 17.5C12.71 15.96 13.96 14.71 15.5 14.71C17.04 14.71 18.29 15.96 18.29 17.5C18.29 19.04 17.04 20.29 15.5 20.29C13.96 20.29 12.71 19.04 12.71 17.5Z" fill="#001333"/>
<path d="M13.71 11C13.71 10.61 13.39 10.29 13 10.29H7.99998C7.60998 10.29 7.28998 10.61 7.28998 11C7.28998 11.39 7.60998 11.71 7.99998 11.71H13C13.39 11.71 13.71 11.39 13.71 11Z" fill="#001333"/>
<path d="M7.99998 14.29C7.60998 14.29 7.28998 14.61 7.28998 15C7.28998 15.39 7.60998 15.71 7.99998 15.71H8.99998C9.38998 15.71 9.70998 15.39 9.70998 15C9.70998 14.61 9.38998 14.29 8.99998 14.29H7.99998Z" fill="#001333"/>
</svg>
