<svg width="20" height="20" viewBox="0 0 20 20" fill="none" xmlns="http://www.w3.org/2000/svg">
<rect width="20" height="20" rx="10" fill="#003366"/>
<path d="M13.5988 13.6035H8.97705V15H13.5988V13.6035Z" fill="white"/>
<path d="M19.5294 13.6035H14.9077V15H19.5294V13.6035Z" fill="white"/>
<path d="M5.99728 9.71559C5.96427 10.3383 5.75988 10.5179 5.45646 10.5179C4.86676 10.5179 4.81789 9.84698 4.81789 8.94562C4.81789 7.99601 4.87502 7.37331 5.48122 7.37331C5.76749 7.37331 6.01315 7.50471 6.04616 8.17629H8.19229C8.18404 6.44021 6.92276 5.83337 5.43234 5.83337C3.43347 5.83337 2.3366 7.07815 2.39373 8.9215C2.39373 10.7972 3.35158 12.0585 5.42409 12.0585C6.89039 12.0585 8.19229 11.3463 8.19229 9.71622H5.99728V9.71559Z" fill="white"/>
<path d="M8.91748 11.8497H11.2274V8.29123C11.2274 7.83674 11.428 7.65456 11.647 7.65456C11.866 7.65456 12.0475 7.87038 12.0475 8.26838V11.8497H14.3574V8.29123C14.3574 7.83674 14.5574 7.65456 14.777 7.65456C14.9966 7.65456 15.1775 7.87038 15.1775 8.26838V11.8497H17.4874V8.05256C17.4874 6.53991 16.7905 5.9718 15.8269 5.9718C15.2823 5.9718 14.7097 6.18762 14.3187 7.00647C14.0229 6.30124 13.489 5.9718 12.754 5.9718C12.21 5.9718 11.6374 6.18762 11.2458 7.00647H11.2274L11.1703 6.14255H8.91812V11.8497H8.91748Z" fill="white"/>
</svg>
